<svg width="99" height="27" viewBox="0 0 99 27" fill="none" xmlns="http://www.w3.org/2000/svg">
<g clip-path="url(#clip0_1_1451)">
<path fill-rule="evenodd" clip-rule="evenodd" d="M66.8574 27H73.8929L76.9156 18.507L80.0585 15.9038L82.5341 23.5844C83.2998 25.9584 84.0879 27 85.8069 27H91.1934L85.6366 11.9283L99.0003 0H90.3699L82.2577 8.49317C81.3127 9.48189 80.3568 10.455 79.3983 11.6174H79.3166L83.3673 0H76.3312L66.8574 27Z" fill="white"/>
<path fill-rule="evenodd" clip-rule="evenodd" d="M66.5536 0.00106982C68.7599 0.00142492 70.9 0.00176932 72.6923 0.00192496L71.24 4.45974C70.7836 5.86034 69.6252 6.5304 67.0718 6.5304C62.6385 6.5304 56.0786 6.52963 51.6448 6.52886L53.097 2.07106C53.5532 0.66969 54.7116 0 57.265 0C59.9062 0 63.302 0.000546534 66.5536 0.00106982ZM53.6843 10.2349C58.1175 10.2349 64.6778 10.2357 69.1116 10.2369L67.6593 14.6945C67.2029 16.0955 66.0445 16.7651 63.491 16.7651C59.0576 16.7651 52.4977 16.7644 48.064 16.7632L49.5162 12.306C49.9724 10.9048 51.1308 10.2349 53.6843 10.2349ZM65.3547 20.4711C60.9212 20.4704 54.3613 20.4696 49.928 20.4696C47.3741 20.4696 46.2161 21.1396 45.7598 22.5399L44.3076 26.9983C48.7414 26.9986 55.3013 27 59.7348 27C62.2881 27 63.4466 26.3298 63.9028 24.9288L65.3547 20.4711Z" fill="white"/>
<path fill-rule="evenodd" clip-rule="evenodd" d="M34.9563 6.50314L38.732 6.50469C41.949 6.50546 41.2147 10.394 39.5866 14.1839C38.152 17.5243 35.6095 20.472 32.5762 20.4717L26.2818 20.4709C23.7712 20.4709 22.6136 21.1409 22.1254 22.5411L20.5713 26.9992L25.1869 27L29.6987 26.9636C33.6999 26.9317 36.9756 26.6518 40.8062 23.3198C44.8544 19.8001 49.5744 10.6562 48.7657 5.36747C48.1323 1.22305 45.8313 0.00192486 40.2596 0.00153989L30.1064 0L24.1946 16.7459L27.9508 16.7505C30.1864 16.753 31.3083 16.7802 32.4974 13.6831L34.9563 6.50314Z" fill="white"/>
<path fill-rule="evenodd" clip-rule="evenodd" d="M17.5989 6.52641L14.759 6.52719C9.07014 6.52989 4.19531 20.474 10.9218 20.4717L15.2437 20.4709C17.7363 20.4709 19.5867 21.3519 18.7674 23.7273L17.6383 26.9992L13.0546 27L9.32612 26.9636C4.55631 26.9175 1.47834 24.6417 0.37007 21.1861C-0.829241 17.4468 0.863974 9.64742 5.77833 4.65123C8.62978 1.75278 12.5796 0.00192486 17.6439 0.00153989L27 0L25.5374 4.08648C24.5925 6.72679 22.6619 6.52989 21.5601 6.5295L17.5989 6.52641Z" fill="white"/>
</g>
<defs>
<clipPath id="clip0_1_1451">
<rect width="99" height="27" fill="white"/>
</clipPath>
</defs>
</svg>
