<svg width="116" height="116" viewBox="0 0 116 116" fill="none" xmlns="http://www.w3.org/2000/svg">
<g clip-path="url(#clip0_1_1456)">
<path fill-rule="evenodd" clip-rule="evenodd" d="M42.9219 46.8168H16.1082L15.1525 45.7143H12.0834L12.7086 43.3252H43.8221L42.9219 46.8168V46.8168ZM60.5094 50.8783V50.9151H53.9853C53.6176 52.1463 53.3053 53.3963 52.9929 54.6275L59.5357 54.6462L57.7898 61.3725V61.4092H51.2652C50.9161 62.6585 50.6038 63.9078 50.2728 65.1584L56.8336 65.1758L55.0878 71.9755V72.0128H40.496L41.3409 68.7415L54.3163 68.7228L54.6467 67.565L41.6352 67.5463C41.9662 66.2783 42.2972 64.9923 42.6276 63.7062H48.8947L49.207 62.5472L42.9405 62.5297L43.9142 58.7805H56.889C57.0177 58.3948 57.0912 57.9717 57.2019 57.5679L44.2265 57.5499C44.5202 56.2999 44.8879 55.0687 45.1822 53.8193H51.4487L51.743 52.6982L45.4759 52.6801L46.4315 48.949H59.4069C59.5351 48.5452 59.6091 48.1408 59.7198 47.7364L46.7445 47.7177L47.7001 44.0058H62.2919L60.5094 50.8783V50.8783ZM76.1116 55.2341L76.1302 55.2528L76.9023 53.8193H87.6534L87.9471 52.6801L77.5637 52.6428L79.6032 48.9676L88.9214 48.9303C89.0309 48.5265 89.1236 48.1221 89.2151 47.7177L80.3199 47.6991L82.3781 44.0052H91.3286L84.1425 71.9942H77.2514C77.545 70.9104 77.8026 69.8067 78.0963 68.7042H83.8296L84.1245 67.565L78.4086 67.5463L79.3089 63.7237L85.0976 63.7062C85.227 63.3385 85.3185 62.9341 85.4105 62.5472L79.6947 62.5297L80.6329 58.7805H86.3854C86.4962 58.3761 86.5876 57.9717 86.7158 57.5679L80.8531 57.5493C80.9825 56.8879 81.148 56.2259 81.2762 55.5826L72.9509 71.9749L70.3602 71.9936V68.7222H73.1718C73.374 68.3365 73.5575 67.9501 73.7597 67.5644L70.3608 67.5457V63.7056H75.7078C75.91 63.3379 76.0947 62.9335 76.2969 62.5466L70.3614 62.5291V58.7799H78.2082C78.4104 58.3755 78.6313 57.9711 78.8148 57.5673L70.3614 57.5487C70.3614 56.85 70.3788 56.1519 70.3614 55.4719L66.061 71.9936H59.1307L59.9756 68.7222H65.2317C65.3424 68.3545 65.4339 67.9688 65.5446 67.583L60.2705 67.5644L61.2622 63.7056H66.5183C66.6098 63.3187 66.7019 62.9335 66.812 62.5466L61.5746 62.5291C61.8863 61.2798 62.2365 60.0293 62.5477 58.7619H67.7851C67.9145 58.3749 67.9873 57.9525 68.098 57.5667L62.8606 57.5481L63.8162 53.8175H74.586L74.6035 52.6783L64.1093 52.6597L65.065 48.9658H74.3284V47.7346L65.3966 47.7159L66.3522 44.004H75.4496L76.1116 55.2341V55.2341ZM110.883 47.6991L109.597 52.6428L102.465 52.6615C102.612 52.0916 102.759 51.5223 102.925 50.9524L100.61 50.9343C100.26 52.1475 99.9668 53.3969 99.6539 54.6281L104.744 54.6648L108.254 57.8809L105.498 68.7048L99.7646 71.9948H92.9276L88.5351 68.7048L88.5176 68.6873H103.992L104.305 67.5662L88.7932 67.5475L89.8042 63.7249L97.302 63.7074L96.953 65.1403L99.232 65.159L99.6178 63.7074H105.261C105.37 63.3205 105.499 62.9528 105.591 62.5484L99.9307 62.5309C99.986 62.1632 100.133 61.8142 100.188 61.4284L94.3996 61.4098C93.5721 60.5269 92.6905 59.6646 91.8455 58.7817L106.528 58.7643C106.639 58.3599 106.749 57.9549 106.877 57.5691L91.3858 57.5505C91.6927 56.3102 92.0112 55.0729 92.3414 53.8386L98.4792 53.8199C98.5899 53.4522 98.6627 53.0478 98.8107 52.6807L92.6351 52.6621C92.9288 51.4121 93.2971 50.1995 93.5908 48.9682L109.065 48.9496L109.378 47.7183L93.885 47.6997L100.152 44.0058H106.952L110.883 47.6991V47.6991ZM41.5985 51.908H20.5001L19.1039 50.2904H10.9075L11.422 48.3057H42.5355L41.5985 51.908ZM40.3305 56.8512H24.7638L22.9813 54.775H9.76765L10.154 53.2494H41.2675L40.3305 56.8512ZM39.0986 61.5747H28.844L26.7305 59.1127H8.6471L8.90407 58.0831H40.0362L39.0986 61.5747V61.5747ZM37.7939 66.4998H33.0891L30.5718 63.5775H7.5073L7.7095 62.6964L27.3004 62.6772H38.7863L37.7939 66.4998V66.4998ZM36.6914 70.7262L34.5039 68.1535L6.31273 68.1361L6.42286 67.6023L37.5183 67.6209L36.6914 70.7262ZM36.1769 72.6562L5.11816 72.6754L5.22829 72.1783H36.3424L36.1769 72.6562Z" fill="white"/>
</g>
<defs>
<clipPath id="clip0_1_1456">
<rect width="116" height="116" fill="white"/>
</clipPath>
</defs>
</svg>
