<svg width="129" height="129" viewBox="0 0 129 129" fill="none" xmlns="http://www.w3.org/2000/svg">
<circle cx="64.5" cy="64.5" r="64.5" fill="url(#paint0_linear_1_1182)"/>
<g clip-path="url(#clip0_1_1182)">
<path d="M92.6042 82.25H83.7292C82.9127 82.25 82.25 81.5873 82.25 80.7708C82.25 79.9543 82.9127 79.2917 83.7292 79.2917H92.6042C95.0507 79.2917 97.0417 77.3007 97.0417 74.8542V54.1458C97.0417 51.6993 95.0507 49.7083 92.6042 49.7083H36.3958C33.9493 49.7083 31.9583 51.6993 31.9583 54.1458V74.8542C31.9583 77.3007 33.9493 79.2917 36.3958 79.2917H45.2708C46.0873 79.2917 46.75 79.9543 46.75 80.7708C46.75 81.5873 46.0873 82.25 45.2708 82.25H36.3958C32.3163 82.25 29 78.9307 29 74.8542V54.1458C29 50.0692 32.3163 46.75 36.3958 46.75H92.6042C96.6837 46.75 100 50.0692 100 54.1458V74.8542C100 78.9307 96.6837 82.25 92.6042 82.25Z" fill="white"/>
<path d="M71.8962 91.125H54.1462C53.3297 91.125 52.667 90.4623 52.667 89.6458C52.667 88.8293 53.3297 88.1666 54.1462 88.1666H71.8962C72.7127 88.1666 73.3753 88.8293 73.3753 89.6458C73.3753 90.4623 72.7127 91.125 71.8962 91.125Z" fill="white"/>
<path d="M71.8962 85.2083H54.1462C53.3297 85.2083 52.667 84.5457 52.667 83.7292C52.667 82.9127 53.3297 82.25 54.1462 82.25H71.8962C72.7127 82.25 73.3753 82.9127 73.3753 83.7292C73.3753 84.5457 72.7127 85.2083 71.8962 85.2083Z" fill="white"/>
<path d="M60.0628 79.2917H54.1462C53.3297 79.2917 52.667 78.629 52.667 77.8125C52.667 76.996 53.3297 76.3334 54.1462 76.3334H60.0628C60.8793 76.3334 61.542 76.996 61.542 77.8125C61.542 78.629 60.8793 79.2917 60.0628 79.2917Z" fill="white"/>
<path d="M83.7295 49.7083C82.913 49.7083 82.2503 49.0457 82.2503 48.2292V36.3958C82.2503 33.9493 80.2594 31.9583 77.8128 31.9583H51.1878C48.7413 31.9583 46.7503 33.9493 46.7503 36.3958V48.2292C46.7503 49.0457 46.0877 49.7083 45.2712 49.7083C44.4547 49.7083 43.792 49.0457 43.792 48.2292V36.3958C43.792 32.3193 47.1083 29 51.1878 29H77.8128C81.8924 29 85.2087 32.3193 85.2087 36.3958V48.2292C85.2087 49.0457 84.546 49.7083 83.7295 49.7083Z" fill="white"/>
<path d="M77.8128 100H51.1878C47.1083 100 43.792 96.6808 43.792 92.6042V68.9375C43.792 68.121 44.4547 67.4584 45.2712 67.4584H83.7295C84.546 67.4584 85.2087 68.121 85.2087 68.9375V92.6042C85.2087 96.6808 81.8924 100 77.8128 100ZM46.7503 70.4167V92.6042C46.7503 95.0507 48.7413 97.0417 51.1878 97.0417H77.8128C80.2594 97.0417 82.2503 95.0507 82.2503 92.6042V70.4167H46.7503Z" fill="white"/>
</g>
<defs>
<linearGradient id="paint0_linear_1_1182" x1="111.5" y1="122.5" x2="19.5" y2="6" gradientUnits="userSpaceOnUse">
<stop offset="0.395833" stop-color="#F5841B" stop-opacity="0.92"/>
<stop offset="1" stop-color="#FFB526"/>
</linearGradient>
<clipPath id="clip0_1_1182">
<rect width="71" height="71" fill="white" transform="translate(29 29)"/>
</clipPath>
</defs>
</svg>
