<svg width="129" height="129" viewBox="0 0 129 129" fill="none" xmlns="http://www.w3.org/2000/svg">
<circle cx="64.5" cy="64.5" r="64.5" fill="url(#paint0_linear_1_1203)"/>
<g clip-path="url(#clip0_1_1203)">
<path d="M91.5833 56.375H37.4167C36.6692 56.375 36.0625 56.9817 36.0625 57.7292V95.6459C36.0625 96.3933 36.6692 97 37.4167 97H91.5834C92.3309 97 92.9376 96.3933 92.9376 95.6458V57.7292C92.9375 56.9817 92.3308 56.375 91.5833 56.375ZM90.2292 94.2917H38.7708V59.0833H90.2291V94.2917H90.2292Z" fill="white"/>
<path d="M94.2921 45.5417H34.7087C33.9612 45.5417 33.3545 46.1484 33.3545 46.8959V57.7292C33.3545 58.4767 33.9612 59.0834 34.7087 59.0834H94.292C95.0395 59.0834 95.6462 58.4767 95.6462 57.7292V46.8959C95.6462 46.1483 95.0396 45.5417 94.2921 45.5417ZM92.9379 56.375H36.0629V48.25H92.9379V56.375Z" fill="white"/>
<path d="M64.4997 45.5417C63.7522 45.5417 63.1455 46.1484 63.1455 46.8959V95.6459C63.1455 96.3934 63.7522 97.0001 64.4997 97.0001C65.2472 97.0001 65.8539 96.3934 65.8539 95.6459V46.8959C65.8539 46.1483 65.2472 45.5417 64.4997 45.5417Z" fill="white"/>
<path d="M65.8839 46.5763C64.4919 40.0464 56.1881 33.04 50.655 32.103C50.3138 32.0352 49.9644 32 49.6042 32C46.6169 32 44.1875 34.4294 44.1875 37.4167C44.1875 38.6653 44.6236 39.884 45.4144 40.8509C45.4252 40.859 45.4333 40.8726 45.4414 40.8834C49.4633 46.0211 62.8506 47.9901 64.3727 48.1986C64.435 48.2067 64.4972 48.2122 64.5569 48.2122C64.9333 48.2122 65.2908 48.0578 65.5508 47.7789C65.8514 47.4564 65.9761 47.0069 65.8839 46.5763ZM47.5377 39.1636C47.5133 39.1284 47.4863 39.0986 47.4591 39.0688C47.0908 38.5948 46.8958 38.0233 46.8958 37.4167C46.8958 35.9217 48.1119 34.7084 49.6041 34.7084C49.7828 34.7084 49.9589 34.7273 50.1674 34.7653C54.2272 35.4533 60.3561 40.3661 62.558 45.1598C57.843 44.2905 49.8831 42.2619 47.5377 39.1636Z" fill="white"/>
<path d="M79.3956 32C79.0355 32 78.6861 32.0352 78.3827 32.0948C72.8144 33.04 64.5106 40.0464 63.1186 46.5763C63.0266 47.0069 63.1511 47.4564 63.4517 47.7788C63.7091 48.055 64.0692 48.212 64.443 48.212C64.5025 48.212 64.5649 48.2066 64.6244 48.2013C66.1464 47.9927 79.5338 46.0238 83.5556 40.8861C83.5664 40.8753 83.5746 40.8617 83.5855 40.8509C84.3763 39.8839 84.8123 38.6652 84.8123 37.4167C84.8123 34.4294 82.383 32 79.3956 32ZM81.5406 39.0714C81.5136 39.1013 81.4864 39.131 81.4621 39.1663C79.1194 42.2592 71.1596 44.2931 66.4416 45.1625C68.6461 40.3633 74.7778 35.4531 78.8702 34.7598C79.0408 34.7273 79.2169 34.7084 79.3956 34.7084C80.888 34.7084 82.1039 35.9217 82.1039 37.4167C82.1041 38.0233 81.9091 38.592 81.5406 39.0714Z" fill="white"/>
</g>
<defs>
<linearGradient id="paint0_linear_1_1203" x1="111.5" y1="122.5" x2="19.5" y2="6" gradientUnits="userSpaceOnUse">
<stop offset="0.395833" stop-color="#F5841B" stop-opacity="0.92"/>
<stop offset="1" stop-color="#FFB526"/>
</linearGradient>
<clipPath id="clip0_1_1203">
<rect width="65" height="65" fill="white" transform="translate(32 32)"/>
</clipPath>
</defs>
</svg>
