<svg width="129" height="129" viewBox="0 0 129 129" fill="none" xmlns="http://www.w3.org/2000/svg">
<circle cx="64.5" cy="64.5" r="64.5" fill="url(#paint0_linear_1_1193)"/>
<g clip-path="url(#clip0_1_1193)">
<path d="M94.1365 60.7642V51.9097C94.1365 48.9072 91.8076 46.4654 88.8651 46.2286L80.6421 31.8659C79.8801 30.5376 78.6496 29.5882 77.1772 29.1939C75.7118 28.8024 74.1795 29.008 72.8679 29.7714L44.679 46.1825H39.7282C36.5696 46.1825 34.001 48.751 34.001 51.9097V86.2728C34.001 89.4313 36.5695 92 39.7282 92H88.4093C91.5678 92 94.1365 89.4315 94.1365 86.2728V77.4182C95.7995 76.8252 97 75.2508 97 73.3866V64.7958C97 62.9316 95.7995 61.3572 94.1365 60.7642ZM85.5377 46.1825H73.0581L82.4179 40.7332L85.5377 46.1825ZM80.9952 38.2482L67.3668 46.1825H61.714L79.5817 35.7796L80.9952 38.2482ZM74.3094 32.2462C74.9568 31.8673 75.7132 31.7666 76.4362 31.9596C77.1674 32.1553 77.7771 32.628 78.156 33.2893L78.159 33.2946L56.023 46.1825H50.3704L74.3094 32.2462ZM91.2728 86.2728C91.2728 87.8513 89.9878 89.1363 88.4093 89.1363H39.7282C38.1496 89.1363 36.8647 87.8513 36.8647 86.2728V51.9097C36.8647 50.3311 38.1496 49.0461 39.7282 49.0461H88.4093C89.9878 49.0461 91.2728 50.3311 91.2728 51.9097V60.5004H82.682C77.9448 60.5004 74.0913 64.3539 74.0913 69.0912C74.0913 73.8285 77.9448 77.682 82.682 77.682H91.2728V86.2728V86.2728ZM94.1365 73.3866C94.1365 74.1765 93.4947 74.8184 92.7046 74.8184H82.682C79.5235 74.8184 76.9548 72.2499 76.9548 69.0912C76.9548 65.9326 79.5233 63.364 82.682 63.364H92.7046C93.4946 63.364 94.1365 64.0058 94.1365 64.7958V73.3866V73.3866Z" fill="white"/>
<path d="M82.6819 66.2277C81.1034 66.2277 79.8184 67.5127 79.8184 69.0912C79.8184 70.6698 81.1034 71.9547 82.6819 71.9547C84.2605 71.9547 85.5454 70.6698 85.5454 69.0912C85.5456 67.5127 84.2606 66.2277 82.6819 66.2277Z" fill="white"/>
</g>
<defs>
<linearGradient id="paint0_linear_1_1193" x1="111.5" y1="122.5" x2="19.5" y2="6" gradientUnits="userSpaceOnUse">
<stop offset="0.395833" stop-color="#F5841B" stop-opacity="0.92"/>
<stop offset="1" stop-color="#FFB526"/>
</linearGradient>
<clipPath id="clip0_1_1193">
<rect width="63" height="63" fill="white" transform="translate(34 29)"/>
</clipPath>
</defs>
</svg>
