<svg width="129" height="129" viewBox="0 0 129 129" fill="none" xmlns="http://www.w3.org/2000/svg">
<circle cx="64.5" cy="64.5" r="64.5" fill="url(#paint0_linear_1_1172)"/>
<path d="M108.77 69.0064L104.265 62.1136C102.276 59.0677 98.896 57.2489 95.222 57.2489H83.5713V50.5444C83.5713 46.4509 80.2425 43.1221 76.149 43.1221H54.3388C53.115 36.7305 47.4888 31.8812 40.7456 31.8812C33.1099 31.8812 26.8985 38.0934 26.8985 45.7283C26.8985 50.5291 29.3567 54.764 33.0783 57.2489H21.413C20.6321 57.2489 20 57.881 20 58.6619C20 59.4428 20.6321 60.0749 21.413 60.0749H35.5398V62.9001H29.8886C29.1085 62.9001 28.4764 63.5322 28.4764 64.3131C28.4764 65.094 29.1085 65.7253 29.8886 65.7253H35.5398V68.5505H21.413C20.6321 68.5505 20 69.1826 20 69.9635C20 70.7443 20.6321 71.3765 21.413 71.3765H35.5398V77.6331C33.0492 78.7317 31.3016 81.2165 31.3016 84.1088V85.5032C31.3016 86.2841 31.9345 86.9162 32.7146 86.9162H45.244C46.0475 90.3728 49.1468 92.9595 52.845 92.9595C56.544 92.9595 59.6424 90.3728 60.4459 86.9162H87.6252C88.4295 90.3728 91.5287 92.9595 95.2261 92.9595C98.9235 92.9595 102.024 90.3728 102.827 86.9162H107.587C108.368 86.9162 109 86.2841 109 85.5032V69.7792C109 69.5043 108.92 69.2351 108.77 69.0064V69.0064ZM29.7237 45.7283C29.7237 39.6511 34.6684 34.7064 40.7456 34.7064C46.8236 34.7064 51.7674 39.6511 51.7674 45.7283C51.7674 51.8055 46.8236 56.7501 40.7456 56.7501C34.6684 56.7501 29.7237 51.8055 29.7237 45.7283ZM38.365 71.3765H41.1902C41.971 71.3765 42.6032 70.7443 42.6032 69.9635C42.6032 69.1826 41.971 68.5505 41.1902 68.5505H38.365V65.7253H48.2543C49.0344 65.7253 49.6665 65.094 49.6665 64.3131C49.6665 63.5322 49.0344 62.9001 48.2543 62.9001H38.365V60.0749H56.7299C57.51 60.0749 58.1429 59.4428 58.1429 58.6619C58.1429 57.881 57.51 57.2489 56.7299 57.2489H48.4128C52.077 54.802 54.5078 50.6568 54.5821 45.9473H76.1498C78.684 45.9473 80.7461 48.0102 80.7461 50.5444V77.0269H38.3827C38.3771 77.0269 38.3714 77.0285 38.365 77.0285V71.3765ZM80.7461 84.0902H60.5744C60.3521 82.4655 59.6311 81.0007 58.5665 79.852H80.7461V84.0902ZM38.3827 79.852H47.1235C46.0597 81.0007 45.3378 82.4655 45.1163 84.0902H34.1268C34.1365 81.7525 36.0426 79.852 38.3827 79.852ZM52.845 90.1343C50.0974 90.1343 47.8607 87.8984 47.8607 85.15C47.8607 82.4024 50.0974 80.1657 52.845 80.1657C55.5934 80.1657 57.8293 82.4024 57.8293 85.15C57.8293 87.8984 55.5934 90.1343 52.845 90.1343ZM95.2261 90.1343C92.4785 90.1343 90.2418 87.8984 90.2418 85.15C90.2418 82.4024 92.4785 80.1657 95.2261 80.1657C97.9745 80.1657 100.21 82.4024 100.21 85.15C100.21 87.8984 97.9745 90.1343 95.2261 90.1343ZM106.174 84.0902H102.956C102.436 80.2853 99.1717 77.3405 95.2261 77.3405C91.2805 77.3405 88.0172 80.2853 87.4966 84.0902H83.5713V60.0749H95.222C97.9373 60.0749 100.434 61.4143 101.901 63.6583L106.174 70.1995V84.0902Z" fill="white"/>
<path d="M97.5372 85.15C97.5372 86.4264 96.5025 87.4611 95.2261 87.4611C93.9497 87.4611 92.915 86.4264 92.915 85.15C92.915 83.8737 93.9497 82.839 95.2261 82.839C96.5025 82.839 97.5372 83.8737 97.5372 85.15Z" fill="white"/>
<path d="M55.1565 85.15C55.1565 86.4264 54.1218 87.4611 52.8454 87.4611C51.5698 87.4611 50.5352 86.4264 50.5352 85.15C50.5352 83.8737 51.5698 82.839 52.8454 82.839C54.1218 82.839 55.1565 83.8737 55.1565 85.15Z" fill="white"/>
<path d="M42.6032 45.7283V39.5477C42.6032 38.7668 41.9711 38.1355 41.1902 38.1355C40.4102 38.1355 39.778 38.7668 39.778 39.5477V45.2676L36.8946 49.2228C36.4347 49.8533 36.5729 50.7361 37.2034 51.1952C37.4556 51.3795 37.7466 51.4676 38.0352 51.4676C38.4709 51.4676 38.901 51.2663 39.1774 50.8864L42.3324 46.5601C42.5078 46.3192 42.6032 46.0282 42.6032 45.7283Z" fill="white"/>
<path d="M94.7501 61.4871H92.0478C91.2669 61.4871 90.6348 62.1192 90.6348 62.9001V72.7887C90.6348 73.5696 91.2669 74.2017 92.0478 74.2017H101.556C102.442 74.2017 103.235 73.7434 103.679 72.9779C104.124 72.2123 104.125 71.2957 103.686 70.5318L100.388 64.7577C99.2356 62.7417 97.0749 61.4871 94.7501 61.4871V61.4871ZM93.4608 71.3765V64.3131H94.7501C96.0637 64.3131 97.2835 65.0204 97.9342 66.1602L100.915 71.3765H93.4608Z" fill="white"/>
<defs>
<linearGradient id="paint0_linear_1_1172" x1="111.5" y1="122.5" x2="19.5" y2="6" gradientUnits="userSpaceOnUse">
<stop offset="0.395833" stop-color="#F5841B" stop-opacity="0.92"/>
<stop offset="1" stop-color="#FFB526"/>
</linearGradient>
</defs>
</svg>
