<svg width="27" height="27" viewBox="0 0 27 27" fill="none" xmlns="http://www.w3.org/2000/svg">
<g clip-path="url(#clip0_1_1449)">
<path d="M19.062 27C17.878 27 16.7051 26.7376 15.6469 26.2384C14.8944 26.3618 14.2471 26.4199 13.6329 26.4199C6.49374 26.4199 0.685547 20.682 0.685547 13.6292C0.685547 12.9424 0.753731 12.2278 0.893188 11.4557C0.307755 10.344 0 9.10307 0 7.84156C0 3.51775 3.56163 0 7.93961 0C9.30206 0 10.6332 0.344009 11.8139 0.998245C12.3518 0.929031 12.9403 0.896484 13.6329 0.896484C17.0826 0.896484 20.3211 2.21752 22.7516 4.61591C25.1852 7.01759 26.5254 10.2187 26.5254 13.6296C26.5254 14.5333 26.4638 15.2998 26.333 16.0086C26.7759 16.998 27 18.0558 27 19.1584C27 23.4822 23.439 27 19.062 27V27ZM15.98 24.0366L16.304 24.2088C17.1424 24.6548 18.0961 24.8906 19.062 24.8906C22.2759 24.8906 24.8906 22.3192 24.8906 19.1584C24.8906 18.2622 24.6881 17.4083 24.2885 16.6206L24.1171 16.2824L24.2001 15.9124C24.3474 15.2565 24.416 14.5312 24.416 13.6296C24.416 7.77173 19.5787 3.00586 13.6329 3.00586C12.8905 3.00586 12.3009 3.04706 11.7771 3.13584L11.3834 3.20238L11.0443 2.99165C10.1157 2.41445 9.04209 2.10938 7.93961 2.10938C4.72488 2.10938 2.10938 4.68079 2.10938 7.84156C2.10938 8.86123 2.38541 9.86215 2.9076 10.7362L3.11792 11.0884L3.03511 11.4903C2.87341 12.2729 2.79492 12.9725 2.79492 13.6292C2.79492 19.5189 7.65678 24.3105 13.6329 24.3105C14.2103 24.3105 14.8414 24.2444 15.6193 24.1025L15.98 24.0366ZM20.3027 16.3932C20.3027 15.6347 20.153 14.9825 19.8543 14.4548C19.5556 13.9293 19.1356 13.4893 18.6072 13.1459C18.0877 12.8097 17.4501 12.5217 16.7137 12.2861C15.9857 12.0552 15.1626 11.8426 14.2671 11.6512C13.5585 11.4885 13.0429 11.3618 12.7356 11.2775C12.4352 11.1953 12.1365 11.0788 11.8453 10.9341C11.5645 10.7947 11.3435 10.6268 11.1844 10.4373C11.0361 10.2564 10.916 10.0475 10.916 9.79706C10.916 9.38775 11.1883 9.04292 11.6508 8.74237C12.1293 8.42967 12.7741 8.30031 13.5672 8.30031C14.4202 8.30031 15.0437 8.41546 15.4149 8.69602C15.7983 8.984 16.1322 9.39516 16.4076 9.91736C16.6463 10.3252 16.8614 10.6097 17.0684 10.7918C17.2911 10.9867 17.6127 11.0742 18.0224 11.0742C18.4729 11.0742 18.8562 10.9278 19.1582 10.6149C19.4602 10.3036 19.6699 9.94599 19.6699 9.55296C19.6699 9.14529 19.4957 8.72342 19.266 8.29948C19.0379 7.87905 18.6779 7.4753 18.1903 7.09628C17.7078 6.72054 17.0917 6.4167 16.3637 6.19155C15.6378 5.96599 14.7683 5.85352 13.7795 5.85352C12.5446 5.85352 11.4514 6.02305 10.5345 6.36108C9.60363 6.70262 8.87956 7.20339 8.38662 7.84341C7.88688 8.48859 7.59375 9.23779 7.59375 10.0694C7.59375 10.942 7.87431 11.6819 8.34933 12.2737C8.81776 12.855 9.45655 13.3198 10.2517 13.6559C11.027 13.9833 12.0018 14.2727 13.1502 14.5176C13.9946 14.695 14.6779 14.8631 15.1815 15.0186C15.6619 15.1671 16.0611 15.3853 16.3633 15.6658C16.6494 15.9324 16.8062 16.2739 16.8062 16.7084C16.8062 17.2575 16.5203 17.708 15.9692 18.0817C15.4059 18.4642 14.6567 18.6152 13.7418 18.6152C13.0757 18.6152 12.5353 18.5627 12.1343 18.373C11.735 18.187 11.4223 17.9453 11.2067 17.6613C10.979 17.3626 10.7654 16.9877 10.5693 16.5403C10.3942 16.1312 10.1773 15.8125 9.92107 15.5983C9.6543 15.3745 9.32616 15.2402 8.9463 15.2402C8.48385 15.2402 8.09514 15.4048 7.79109 15.6874C7.4856 15.9734 7.33008 16.3236 7.33008 16.7261C7.33008 17.3714 7.56841 18.0403 8.04014 18.7127C8.50301 19.3795 9.11748 19.9212 9.86112 20.3202C10.8997 20.8692 12.2333 21.1465 13.823 21.1465C15.1459 21.1465 16.3102 20.9428 17.2796 20.5425C18.2599 20.1386 19.0157 19.5682 19.528 18.8476C20.0422 18.1252 20.3017 17.2993 20.3027 16.3932Z" fill="white"/>
</g>
<defs>
<clipPath id="clip0_1_1449">
<rect width="27" height="27" fill="white"/>
</clipPath>
</defs>
</svg>
