<svg width="27" height="27" viewBox="0 0 27 27" fill="none" xmlns="http://www.w3.org/2000/svg">
<g clip-path="url(#clip0_1_978)">
<path d="M25.9654 5.51327C24.9294 4.0877 23.1151 2.80098 20.8567 1.89026C18.6105 0.984495 16.0025 0.483624 13.5129 0.480038C11.0232 0.473816 8.41192 0.969519 6.16248 1.86827C3.90017 2.77219 2.08152 4.05332 1.04176 5.47551C0.043076 6.84149 -0.244748 8.31378 0.209348 9.73323C0.503922 10.6541 1.36323 11.2737 2.34815 11.2751L5.72057 11.2782C5.72167 11.2782 5.72278 11.2782 5.72394 11.2782C6.39641 11.2782 7.02822 10.9838 7.45758 10.4702C7.88241 9.96215 8.05839 9.29812 7.94042 8.64833C7.93699 8.62929 7.93277 8.61031 7.92797 8.59148L7.75052 7.90161C8.73318 7.43275 10.9596 6.52688 13.5025 6.54127C16.0436 6.5543 18.2685 7.45964 19.2524 7.92872L19.0721 8.61469C19.067 8.63409 19.0626 8.65366 19.0589 8.67333C18.9392 9.32275 19.1132 9.98726 19.5366 10.4966C19.9652 11.0123 20.5975 11.3086 21.2717 11.3096L24.6441 11.3127C24.6452 11.3127 24.6464 11.3127 24.6475 11.3127C25.6305 11.3127 26.4901 10.696 26.7869 9.77706C27.2452 8.35792 26.9612 6.88352 25.9654 5.51327ZM25.2534 9.28167C25.1735 9.52889 24.9245 9.70133 24.6469 9.70133C24.6466 9.70133 24.6463 9.70133 24.6459 9.70133L21.2735 9.69817C21.0792 9.6979 20.8978 9.61347 20.7757 9.4665C20.7093 9.38661 20.6056 9.22044 20.6395 8.98936L20.975 7.71303C21.067 7.36325 20.9146 6.99516 20.6024 6.81259C20.4723 6.73655 17.3713 4.94959 13.5108 4.92971C13.4893 4.92961 13.4685 4.92955 13.4471 4.92955C9.61131 4.92955 6.53246 6.70871 6.40258 6.78485C6.09234 6.96679 5.94026 7.33224 6.02985 7.6806L6.3587 8.95899C6.3923 9.19054 6.28804 9.35671 6.22133 9.43655C6.09904 9.58284 5.91774 9.66668 5.72347 9.66668C5.72315 9.66668 5.72283 9.66668 5.72252 9.66668L2.35005 9.66352C2.07251 9.6631 1.82334 9.48981 1.74413 9.24207C1.44924 8.32022 1.65058 7.37284 2.34256 6.42637C4.18072 3.9122 8.86354 2.09123 13.4854 2.09123C13.4937 2.09123 13.5025 2.09123 13.5107 2.09123C18.1372 2.09788 22.827 3.93541 24.662 6.46043C25.3523 7.41055 25.5513 8.35971 25.2534 9.28167Z" fill="white"/>
<path d="M21.1249 14.7554L18.61 12.1147C18.4578 11.955 18.247 11.8647 18.0266 11.8647H16.4013V10.7666C16.4013 10.3216 16.0406 9.96094 15.5956 9.96094C15.1507 9.96094 14.7899 10.3216 14.7899 10.7666V11.8647H12.2101V10.7666C12.2101 10.3216 11.8494 9.96094 11.4044 9.96094C10.9594 9.96094 10.5987 10.3216 10.5987 10.7666V11.8647H8.97349C8.75301 11.8647 8.54212 11.9551 8.39009 12.1147L5.87519 14.7554C3.90334 16.8258 2.81738 19.5407 2.81738 22.3999V25.7144C2.81738 26.1594 3.17809 26.5201 3.62306 26.5201H23.3769C23.8219 26.5201 24.1826 26.1594 24.1826 25.7144V22.3999C24.1827 19.5407 23.0968 16.8258 21.1249 14.7554ZM4.42873 24.9087V22.3999C4.42873 19.9563 5.35681 17.6362 7.04209 15.8666L9.31885 13.4759H17.6813L19.958 15.8666C21.6432 17.6361 22.5713 19.9563 22.5713 22.3999V24.9087H4.42873Z" fill="white"/>
<path d="M13.4998 15.1418C11.1747 15.1418 9.2832 17.0334 9.2832 19.3584C9.2832 21.6835 11.1748 23.5751 13.4998 23.5751C15.8248 23.5751 17.7164 21.6835 17.7164 19.3584C17.7164 17.0334 15.8249 15.1418 13.4998 15.1418ZM13.4998 21.9637C12.0632 21.9637 10.8946 20.795 10.8946 19.3584C10.8946 17.9218 12.0633 16.7531 13.4998 16.7531C14.9363 16.7531 16.105 17.9218 16.105 19.3584C16.105 20.795 14.9363 21.9637 13.4998 21.9637Z" fill="white"/>
</g>
<defs>
<clipPath id="clip0_1_978">
<rect width="27" height="27" fill="white"/>
</clipPath>
</defs>
</svg>
