<svg width="20" height="20" viewBox="0 0 20 20" fill="none" xmlns="http://www.w3.org/2000/svg">
<path d="M18.9529 3.22687C18.7689 2.72821 18.4753 2.27686 18.0938 1.90637C17.7233 1.5249 17.2723 1.23132 16.7733 1.0473C16.3687 0.890137 15.7607 0.703064 14.6411 0.6521C13.4298 0.596863 13.0666 0.584961 10.0002 0.584961C6.93353 0.584961 6.57037 0.596558 5.35944 0.651794C4.23975 0.703064 3.63153 0.890137 3.22717 1.0473C2.72821 1.23132 2.27686 1.5249 1.90668 1.90637C1.52521 2.27686 1.23163 2.72791 1.0473 3.22687C0.890137 3.63153 0.703064 4.23975 0.6521 5.35944C0.596863 6.57037 0.584961 6.93353 0.584961 10.0002C0.584961 13.0667 0.596863 13.4298 0.6521 14.6411C0.703064 15.7607 0.890137 16.3687 1.0473 16.7733C1.23163 17.2723 1.5249 17.7233 1.90637 18.0938C2.27686 18.4753 2.72791 18.7689 3.22687 18.9529C3.63153 19.1104 4.23975 19.2974 5.35944 19.3484C6.57037 19.4036 6.93323 19.4152 9.99994 19.4152C13.067 19.4152 13.4301 19.4036 14.6407 19.3484C15.7604 19.2974 16.3687 19.1104 16.7733 18.9529C17.7749 18.5665 18.5665 17.7749 18.9529 16.7733C19.11 16.3687 19.2971 15.7607 19.3484 14.6411C19.4036 13.4298 19.4152 13.0667 19.4152 10.0002C19.4152 6.93353 19.4036 6.57037 19.3484 5.35944C19.2974 4.23975 19.1103 3.63153 18.9529 3.22687V3.22687ZM10.0002 15.8972C6.7431 15.8972 4.10272 13.2571 4.10272 9.99994C4.10272 6.7428 6.7431 4.10272 10.0002 4.10272C13.2571 4.10272 15.8975 6.7428 15.8975 9.99994C15.8975 13.2571 13.2571 15.8972 10.0002 15.8972ZM16.1306 5.24774C15.3695 5.24774 14.7524 4.63068 14.7524 3.86957C14.7524 3.10846 15.3695 2.49139 16.1306 2.49139C16.8917 2.49139 17.5088 3.10846 17.5088 3.86957C17.5085 4.63068 16.8917 5.24774 16.1306 5.24774Z" fill="white"/>
</svg>
