<svg width="27" height="27" viewBox="0 0 27 27" fill="none" xmlns="http://www.w3.org/2000/svg">
<g clip-path="url(#clip0_1_1417)">
<path d="M22.9881 3.92088C20.4517 1.39396 17.0775 0.00144196 13.4864 0C9.90335 0 6.52382 1.39128 3.97073 3.91759C1.41312 6.44822 0.0032959 9.81127 0 13.375V13.3791V13.3816C0.000411987 15.5385 0.567101 17.7144 1.6428 19.7006L0.0368729 27L7.4203 25.3205C9.29031 26.263 11.3768 26.7598 13.4813 26.7606H13.4866C17.069 26.7606 20.4486 25.3691 23.0021 22.8426C25.562 20.3099 26.9724 16.9512 26.974 13.3853C26.9751 9.84444 25.5597 6.48324 22.9881 3.92088V3.92088ZM13.4864 24.6533H13.4817C11.5921 24.6525 9.71981 24.1781 8.06754 23.281L7.71838 23.0915L2.80872 24.2082L3.87515 19.3615L3.66957 19.007C2.64743 17.2443 2.10732 15.2985 2.10732 13.3793C2.11123 7.16714 7.21534 2.10732 13.486 2.10732C16.5153 2.10855 19.3618 3.28292 21.5008 5.41372C23.6722 7.57748 24.8676 10.4082 24.8665 13.3846C24.8641 19.5982 19.7589 24.6533 13.4864 24.6533V24.6533Z" fill="white"/>
<path d="M9.8168 7.48096H9.22559C9.01981 7.48096 8.68568 7.558 8.40306 7.86555C8.12023 8.1733 7.32324 8.91714 7.32324 10.43C7.32324 11.9428 8.42881 13.4045 8.58289 13.6099C8.73718 13.8151 10.717 17.0187 13.8526 18.2511C16.4586 19.2753 16.9891 19.0716 17.5545 19.0203C18.1202 18.9692 19.3798 18.2767 19.6369 17.5588C19.894 16.8409 19.894 16.2254 19.817 16.0968C19.7397 15.9687 19.5339 15.8919 19.2256 15.7382C18.917 15.5843 17.405 14.8279 17.1222 14.7251C16.8393 14.6228 16.6337 14.5715 16.428 14.8794C16.2222 15.1868 15.6163 15.8979 15.4363 16.103C15.2565 16.3084 15.0764 16.3342 14.7679 16.1803C14.4593 16.026 13.4759 15.6956 12.2974 14.6483C11.3801 13.8332 10.7436 12.7937 10.5635 12.486C10.3837 12.1784 10.5444 12.012 10.6991 11.8585C10.8377 11.7209 11.0249 11.5326 11.1792 11.3532C11.3333 11.1736 11.3772 11.0455 11.4802 10.8403C11.583 10.6351 11.5315 10.4555 11.4544 10.3018C11.3772 10.148 10.7852 8.62752 10.5108 8.01942H10.511C10.2799 7.50732 10.0366 7.49002 9.8168 7.48096V7.48096Z" fill="white"/>
</g>
<defs>
<clipPath id="clip0_1_1417">
<rect width="27" height="27" fill="white"/>
</clipPath>
</defs>
</svg>
